<svg xmlns="http://www.w3.org/2000/svg" viewBox="0 0 512 512" width="512" height="512">
  <defs>
    <linearGradient id="g" x1="0%" y1="0%" x2="100%" y2="100%">
      <stop offset="0%" style="stop-color:#6366f1"/>
      <stop offset="100%" style="stop-color:#06b6d4"/>
    </linearGradient>
  </defs>
  <rect width="512" height="512" rx="96" fill="url(#g)"/>
  <g transform="translate(156,136)" fill="#fff" opacity=".95">
    <rect x="20" y="0" width="160" height="200" rx="12"/>
    <path d="M140 0 L140 60 L180 60 Z" fill="#e2e8f0" opacity=".5"/>
    <rect x="40" y="80" width="120" height="8" rx="4" fill="#cbd5e1"/>
    <rect x="40" y="100" width="100" height="8" rx="4" fill="#cbd5e1"/>
    <rect x="40" y="120" width="80" height="8" rx="4" fill="#cbd5e1"/>
    <rect x="40" y="140" width="110" height="8" rx="4" fill="#cbd5e1"/>
    <rect x="40" y="160" width="90" height="8" rx="4" fill="#cbd5e1"/>
  </g>
  <g transform="translate(320,140)">
    <path d="M0,-40 L10,-12 L38,-8 L16,10 L22,40 L0,22 L-22,40 L-16,10 L-38,-8 L-10,-12 Z" fill="#fbbf24" opacity=".9"/>
  </g>
</svg>